<svg id="visual" viewBox="0 0 1920 600" width="1920" height="600" xmlns="http://www.w3.org/2000/svg" xmlns:xlink="http://www.w3.org/1999/xlink" version="1.1"><rect width="1920" height="600" fill="#EEEDFF"></rect><g><g transform="translate(1665 142)"><path d="M97.1 -124.8C146.1 -74.5 220.3 -63.2 240.5 -30.3C260.8 2.7 227.3 57.3 189.2 96.1C151.1 134.9 108.5 158 59.3 185.8C10.2 213.5 -45.6 246 -102 242C-158.4 238 -215.4 197.7 -244.2 143.2C-273 88.7 -273.6 20.2 -270.2 -56.1C-266.9 -132.5 -259.6 -216.7 -214 -267.6C-168.3 -318.5 -84.1 -336.1 -30.1 -300.3C24 -264.5 48 -175.1 97.1 -124.8Z" fill="#B7CCFF"></path></g><g transform="translate(203 547)"><path d="M101 -106.2C135.1 -91.8 169.7 -63.9 167.5 -35.6C165.3 -7.2 126.3 21.5 101.3 52.5C76.3 83.5 65.4 116.6 44 127C22.6 137.4 -9.3 125.2 -40.7 113.2C-72.1 101.1 -103.1 89.3 -128.4 64.8C-153.6 40.3 -173 3.2 -157.3 -17.6C-141.5 -38.4 -90.6 -42.8 -58.5 -57.6C-26.4 -72.4 -13.2 -97.6 10.1 -109.7C33.5 -121.7 66.9 -120.7 101 -106.2Z" fill="#B7CCFF"></path></g></g></svg>