<svg id="visual" viewBox="0 0 1920 1080" width="1920" height="1080" xmlns="http://www.w3.org/2000/svg" xmlns:xlink="http://www.w3.org/1999/xlink" version="1.1"><rect x="0" y="0" width="1920" height="1080" fill="#fff"></rect><defs><linearGradient id="grad1_0" x1="43.8%" y1="100%" x2="100%" y2="0%"><stop offset="14.444444444444446%" stop-color="#ffffff" stop-opacity="1"></stop><stop offset="85.55555555555554%" stop-color="#ffffff" stop-opacity="1"></stop></linearGradient></defs><defs><linearGradient id="grad2_0" x1="0%" y1="100%" x2="56.3%" y2="0%"><stop offset="14.444444444444446%" stop-color="#ffffff" stop-opacity="1"></stop><stop offset="85.55555555555554%" stop-color="#ffffff" stop-opacity="1"></stop></linearGradient></defs><g transform="translate(1920, 1080)"><path d="M-702 0C-647.7 -56.2 -593.3 -112.5 -583 -189.4C-572.7 -266.4 -606.3 -364 -567.9 -412.6C-529.6 -461.2 -419.2 -460.7 -345 -474.9C-270.9 -489.1 -232.9 -518 -181.4 -558.3C-129.9 -598.6 -65 -650.3 0 -702L0 0Z" fill="#D4FAED"></path></g><g transform="translate(0, 0)"><path d="M702 0C700.5 79.8 699 159.6 652.4 212C605.9 264.4 514.3 289.3 466.8 339.2C419.4 389 416.1 463.8 382.6 526.7C349.2 589.5 285.7 640.4 216.9 667.6C148.1 694.9 74.1 698.4 0 702L0 0Z" fill="#D4FAED"></path></g></svg>